HIERARCHY
ROOT Hips
{
	OFFSET 0.000000 100.481300 0.000000
	CHANNELS 6 Xposition Yposition Zposition Xrotation Yrotation Zrotation 
	JOINT Spine
	{
		OFFSET -0.279200 12.230698 -2.892100
		CHANNELS 3 Xrotation Yrotation Zrotation
		JOINT Spine1
		{
			OFFSET -0.232667 10.192268 -1.242267
			CHANNELS 3 Xrotation Yrotation Zrotation
			JOINT Spine1_split
			{
				OFFSET -0.232667 10.192268 -1.242267
				CHANNELS 3 Xrotation Yrotation Zrotation
				JOINT Spine2
				{
					OFFSET -0.232667 10.192268 -1.242267
					CHANNELS 3 Xrotation Yrotation Zrotation
					JOINT Neck
					{
						OFFSET -0.418800 17.814194 8.416900
						CHANNELS 3 Xrotation Yrotation Zrotation
						JOINT Head
						{
							OFFSET 0.000000 7.031097 3.806800
							CHANNELS 3 Xrotation Yrotation Zrotation
							JOINT HeadTop_End
							{
								OFFSET 0.000000 24.646606 12.978600
								CHANNELS 3 Xrotation Yrotation Zrotation
								End Site
								{
									OFFSET 0.000000 0.000000 0.000000
								}
							}
						}
					}
					JOINT LeftShoulder
					{
						OFFSET 8.476499 7.247704 -3.868750
						CHANNELS 3 Xrotation Yrotation Zrotation
						JOINT LeftShoulder_split
						{
							OFFSET 8.476499 7.247704 -3.868750
							CHANNELS 3 Xrotation Yrotation Zrotation
							JOINT LeftArm
							{
								OFFSET 9.308998 -2.777710 0.208600
								CHANNELS 3 Xrotation Yrotation Zrotation
								JOINT LeftForeArm
								{
									OFFSET 29.972298 0.000000 0.000000
									CHANNELS 3 Xrotation Yrotation Zrotation
									JOINT LeftHand
									{
										OFFSET 26.026505 0.000000 0.000000
										CHANNELS 3 Xrotation Yrotation Zrotation
										JOINT LeftHandThumb1
										{
											OFFSET 12.240501 -7.147949 9.207150
											CHANNELS 3 Xrotation Yrotation Zrotation
											JOINT LeftHandThumb2
											{
												OFFSET 4.138618 -2.389435 2.389433
												CHANNELS 3 Xrotation Yrotation Zrotation
												JOINT LeftHandThumb3
												{
													OFFSET 2.726913 -1.574387 1.574386
													CHANNELS 3 Xrotation Yrotation Zrotation
													JOINT LeftHandThumb4
													{
														OFFSET 3.941010 -2.275345 2.275342
														CHANNELS 3 Xrotation Yrotation Zrotation
														End Site
														{
															OFFSET 0.000000 0.000000 0.000000
														}
													}
												}
											}
										}
										JOINT LeftHandIndex1
										{
											OFFSET 24.424698 -1.985611 5.953459
											CHANNELS 3 Xrotation Yrotation Zrotation
											JOINT LeftHandIndex2
											{
												OFFSET 6.426697 0.000000 0.000000
												CHANNELS 3 Xrotation Yrotation Zrotation
												JOINT LeftHandIndex3
												{
													OFFSET 5.337898 0.000000 0.000000
													CHANNELS 3 Xrotation Yrotation Zrotation
													JOINT LeftHandIndex4
													{
														OFFSET 4.409401 0.000000 0.000000
														CHANNELS 3 Xrotation Yrotation Zrotation
														End Site
														{
															OFFSET 0.000000 0.000000 0.000000
														}
													}
												}
											}
										}
										JOINT LeftHandMiddle1
										{
											OFFSET 23.810104 0.000000 0.000000
											CHANNELS 3 Xrotation Yrotation Zrotation
											JOINT LeftHandMiddle2
											{
												OFFSET 7.176498 0.000000 0.000000
												CHANNELS 3 Xrotation Yrotation Zrotation
												JOINT LeftHandMiddle3
												{
													OFFSET 6.774902 0.000000 0.000000
													CHANNELS 3 Xrotation Yrotation Zrotation
													JOINT LeftHandMiddle4
													{
														OFFSET 5.403328 0.000000 0.000000
														CHANNELS 3 Xrotation Yrotation Zrotation
														End Site
														{
															OFFSET 0.000000 0.000000 0.000000
														}
													}
												}
											}
										}
										JOINT LeftHandRing1
										{
											OFFSET 22.908401 -0.839279 -6.020567
											CHANNELS 3 Xrotation Yrotation Zrotation
											JOINT LeftHandRing2
											{
												OFFSET 6.337502 0.000000 0.000000
												CHANNELS 3 Xrotation Yrotation Zrotation
												JOINT LeftHandRing3
												{
													OFFSET 5.779297 0.000000 0.000000
													CHANNELS 3 Xrotation Yrotation Zrotation
													JOINT LeftHandRing4
													{
														OFFSET 4.965698 0.000000 0.000000
														CHANNELS 3 Xrotation Yrotation Zrotation
														End Site
														{
															OFFSET 0.000000 0.000000 0.000000
														}
													}
												}
											}
										}
										JOINT LeftHandPinky1
										{
											OFFSET 20.037003 -1.530319 -10.950146
											CHANNELS 3 Xrotation Yrotation Zrotation
											JOINT LeftHandPinky2
											{
												OFFSET 5.254700 0.000000 0.000000
												CHANNELS 3 Xrotation Yrotation Zrotation
												JOINT LeftHandPinky3
												{
													OFFSET 4.810204 0.000000 0.000000
													CHANNELS 3 Xrotation Yrotation Zrotation
													JOINT LeftHandPinky4
													{
														OFFSET 3.647202 0.000000 0.000000
														CHANNELS 3 Xrotation Yrotation Zrotation
														End Site
														{
															OFFSET 0.000000 0.000000 0.000000
														}
													}
												}
											}
										}
									}
								}
							}
						}
					}
					JOINT RightShoulder
					{
						OFFSET -7.570500 7.247704 -3.868750
						CHANNELS 3 Xrotation Yrotation Zrotation
						JOINT RightShoulder_split
						{
							OFFSET -7.570500 7.247704 -3.868750
							CHANNELS 3 Xrotation Yrotation Zrotation
							JOINT RightArm
							{
								OFFSET -9.308998 -2.777710 0.208500
								CHANNELS 3 Xrotation Yrotation Zrotation
								JOINT RightForeArm
								{
									OFFSET -29.972300 0.000000 0.000000
									CHANNELS 3 Xrotation Yrotation Zrotation
									JOINT RightHand
									{
										OFFSET -26.026505 0.000000 0.000000
										CHANNELS 3 Xrotation Yrotation Zrotation
										JOINT RightHandThumb1
										{
											OFFSET -12.240601 -7.148026 9.207092
											CHANNELS 3 Xrotation Yrotation Zrotation
											JOINT RightHandThumb2
											{
												OFFSET -4.138618 -2.389435 2.389433
												CHANNELS 3 Xrotation Yrotation Zrotation
												JOINT RightHandThumb3
												{
													OFFSET -2.726974 -1.574417 1.574421
													CHANNELS 3 Xrotation Yrotation Zrotation
													JOINT RightHandThumb4
													{
														OFFSET -3.941010 -2.275345 2.275343
														CHANNELS 3 Xrotation Yrotation Zrotation
														End Site
														{
															OFFSET 0.000000 0.000000 0.000000
														}
													}
												}
											}
										}
										JOINT RightHandIndex1
										{
											OFFSET -24.424698 -1.985657 5.953444
											CHANNELS 3 Xrotation Yrotation Zrotation
											JOINT RightHandIndex2
											{
												OFFSET -6.426697 0.000000 0.000000
												CHANNELS 3 Xrotation Yrotation Zrotation
												JOINT RightHandIndex3
												{
													OFFSET -5.337898 0.000000 0.000000
													CHANNELS 3 Xrotation Yrotation Zrotation
													JOINT RightHandIndex4
													{
														OFFSET -4.409401 0.000000 0.000000
														CHANNELS 3 Xrotation Yrotation Zrotation
														End Site
														{
															OFFSET 0.000000 0.000000 0.000000
														}
													}
												}
											}
										}
										JOINT RightHandMiddle1
										{
											OFFSET -23.810097 0.000000 0.000000
											CHANNELS 3 Xrotation Yrotation Zrotation
											JOINT RightHandMiddle2
											{
												OFFSET -7.176498 0.000000 0.000000
												CHANNELS 3 Xrotation Yrotation Zrotation
												JOINT RightHandMiddle3
												{
													OFFSET -6.774902 0.000000 0.000000
													CHANNELS 3 Xrotation Yrotation Zrotation
													JOINT RightHandMiddle4
													{
														OFFSET -5.403328 0.000000 0.000000
														CHANNELS 3 Xrotation Yrotation Zrotation
														End Site
														{
															OFFSET 0.000000 0.000000 0.000000
														}
													}
												}
											}
										}
										JOINT RightHandRing1
										{
											OFFSET -22.908302 -0.839325 -6.020576
											CHANNELS 3 Xrotation Yrotation Zrotation
											JOINT RightHandRing2
											{
												OFFSET -6.337502 0.000000 0.000000
												CHANNELS 3 Xrotation Yrotation Zrotation
												JOINT RightHandRing3
												{
													OFFSET -5.779297 0.000000 0.000000
													CHANNELS 3 Xrotation Yrotation Zrotation
													JOINT RightHandRing4
													{
														OFFSET -4.965698 0.000000 0.000000
														CHANNELS 3 Xrotation Yrotation Zrotation
														End Site
														{
															OFFSET 0.000000 0.000000 0.000000
														}
													}
												}
											}
										}
										JOINT RightHandPinky1
										{
											OFFSET -20.037003 -1.530334 -10.950259
											CHANNELS 3 Xrotation Yrotation Zrotation
											JOINT RightHandPinky2
											{
												OFFSET -5.254700 0.000000 0.000000
												CHANNELS 3 Xrotation Yrotation Zrotation
												JOINT RightHandPinky3
												{
													OFFSET -4.810204 0.000000 0.000000
													CHANNELS 3 Xrotation Yrotation Zrotation
													JOINT RightHandPinky4
													{
														OFFSET -3.647202 0.000000 0.000000
														CHANNELS 3 Xrotation Yrotation Zrotation
														End Site
														{
															OFFSET 0.000000 0.000000 0.000000
														}
													}
												}
											}
										}
									}
								}
							}
						}
					}
				}
			}
		}
	}
	JOINT LeftUpLeg
	{
		OFFSET 15.427100 -6.655098 0.678600
		CHANNELS 3 Xrotation Yrotation Zrotation
		JOINT LeftLeg
		{
			OFFSET 4.081073 -39.591068 13.024000
			CHANNELS 3 Xrotation Yrotation Zrotation
			JOINT LeftFoot
			{
				OFFSET -4.081074 -37.707932 -15.979700
				CHANNELS 3 Xrotation Yrotation Zrotation
				JOINT LeftToeBase
				{
					OFFSET 5.346399 -15.068900 20.645000
					CHANNELS 3 Xrotation Yrotation Zrotation
					JOINT LeftToe_End
					{
						OFFSET 2.754700 0.931300 11.300900
						CHANNELS 3 Xrotation Yrotation Zrotation
						End Site
						{
							OFFSET 0.000000 0.000000 0.000000
						}
					}
				}
			}
		}
	}
	JOINT RightUpLeg
	{
		OFFSET -15.569500 -6.655098 0.678600
		CHANNELS 3 Xrotation Yrotation Zrotation
		JOINT RightLeg
		{
			OFFSET -4.081825 -39.591045 13.023800
			CHANNELS 3 Xrotation Yrotation Zrotation
			JOINT RightFoot
			{
				OFFSET 4.081824 -37.707954 -15.979600
				CHANNELS 3 Xrotation Yrotation Zrotation
				JOINT RightToeBase
				{
					OFFSET -5.346400 -15.068900 20.645000
					CHANNELS 3 Xrotation Yrotation Zrotation
					JOINT RightToe_End
					{
						OFFSET -2.754700 0.931300 11.300900
						CHANNELS 3 Xrotation Yrotation Zrotation
						End Site
						{
							OFFSET 0.000000 0.000000 0.000000
						}
					}
				}
			}
		}
	}
}
MOTION
Frames: 5
Frame Time: 0.016667
5.229069 75.737083 -4.829045 3.745476 -55.796017 3.750628 10.480785 12.352453 -4.287527 3.762002 4.020622 -2.477470 0.000000 0.000000 0.000000 3.818226 3.984994 -2.462739 0.516752 1.074227 7.089723 -7.298610 30.311225 -5.053251 0.000000 -0.000000 0.000000 0.201635 -6.892845 -14.624144 0.000000 0.000000 0.000000 -24.181356 -39.117716 -26.205460 -2.022163 -73.632827 -1.555864 -5.774898 23.551652 40.520528 40.109903 -15.297196 -0.360478 5.639923 28.097786 11.338777 1.088571 40.896311 22.734013 -0.000001 0.000000 0.000004 6.882261 2.840038 -61.140493 8.248003 7.640045 -89.897878 2.146150 8.173412 -41.827798 0.000000 0.000001 -0.000001 -2.345536 4.688885 -62.655231 8.754169 9.897083 -87.051232 1.995359 4.929289 -37.483378 -0.000001 0.000000 0.000001 -9.042493 10.045631 -60.766178 8.523965 9.508870 -66.892947 6.576518 9.896777 -70.385113 0.000004 0.000000 -0.000000 -17.946865 14.755003 -51.485911 8.868397 8.667044 -84.812078 4.540484 8.852635 -59.152997 0.000001 -0.000002 0.000001 3.144272 20.729237 -9.731362 0.000000 0.000000 0.000000 -14.532867 28.739196 7.272879 -179.799279 72.546649 179.534118 -65.149500 13.409669 -51.164500 0.277457 -1.521468 -1.570530 7.169070 -41.689644 -15.773559 -4.517973 11.064501 4.674018 -0.000001 0.000000 0.000002 6.412785 -12.738393 14.389479 9.941765 -7.465195 101.743270 4.405021 -9.947460 61.138840 -0.000001 -0.000000 -0.000001 2.653157 -11.302276 44.730871 9.916056 -9.880678 94.351154 8.462600 -8.530835 83.992271 -0.000003 0.000000 -0.000001 2.140174 -7.454442 61.764991 9.609209 -8.992463 89.388694 11.175508 -10.370859 97.638135 -0.000000 -0.000000 0.000001 -4.886697 -23.798143 68.396094 13.518310 -7.949252 112.864962 8.544480 -10.117942 85.305627 0.000001 -0.000000 0.000001 -44.841479 -0.013392 26.717154 42.653517 -5.498612 0.305510 -0.576988 -5.658926 -20.560393 -1.836438 -0.000622 -0.000032 0.000000 0.000001 0.000000 -36.241175 -21.022982 -41.230526 47.253810 11.683418 -1.667826 -15.740005 -4.607786 21.310137 -0.001663 -0.000376 0.000007 -0.000000 -0.000000 -0.000000 
5.300132 75.923470 -4.822929 4.020492 -56.528988 3.904902 11.092386 12.666072 -4.861429 3.882954 4.155485 -2.595618 0.000000 0.000000 0.000000 3.940182 4.114885 -2.582874 0.077769 1.097552 7.089565 -9.455424 30.205897 -4.759079 0.000001 -0.000000 -0.000000 0.273689 -7.175074 -13.814899 0.000000 0.000000 0.000000 -27.151295 -40.609320 -28.235273 -1.969285 -72.750134 -1.517637 -3.652088 23.449909 41.380646 40.109903 -15.297201 -0.360478 5.639922 28.097788 11.338776 1.088567 40.896314 22.734011 0.000001 -0.000003 0.000001 6.882261 2.840039 -61.140493 8.248001 7.640045 -89.897878 2.146152 8.173413 -41.827798 0.000001 -0.000003 0.000000 -2.345533 4.688883 -62.655231 8.754170 9.897080 -87.051232 1.995361 4.929293 -37.483381 -0.000003 -0.000001 -0.000001 -9.042493 10.045631 -60.766178 8.523968 9.508866 -66.892947 6.576517 9.896778 -70.385113 0.000000 -0.000000 0.000000 -17.946865 14.755003 -51.485911 8.868400 8.667041 -84.812071 4.540487 8.852636 -59.153004 0.000000 -0.000000 0.000001 2.514156 21.233538 -6.811736 0.000000 0.000000 0.000000 -5.943695 30.749925 2.272446 -179.151914 73.423796 179.050062 -67.159543 12.064832 -48.542633 0.277478 -1.521466 -1.570577 7.169084 -41.689685 -15.773470 -4.517985 11.064507 4.673968 -0.000001 0.000001 0.000003 6.412846 -12.738457 14.389533 9.941761 -7.465119 101.743263 4.405014 -9.947440 61.138867 0.000003 0.000000 -0.000001 2.653150 -11.302300 44.730902 9.916094 -9.880707 94.351181 8.462581 -8.530835 83.992223 0.000000 -0.000001 0.000001 2.140159 -7.454485 61.765018 9.609270 -8.992486 89.388728 11.175542 -10.370869 97.638114 -0.000001 -0.000000 -0.000002 -4.886722 -23.798140 68.396128 13.518263 -7.949281 112.864969 8.544483 -10.117910 85.305695 0.000000 -0.000000 -0.000002 -44.603837 0.374223 27.121766 42.460943 -5.638060 0.290419 -0.652357 -5.233174 -20.566734 -1.836438 -0.000619 -0.000032 0.000000 0.000003 0.000000 -36.512217 -20.755905 -40.987921 46.933208 10.897942 -1.732989 -15.339790 -3.421381 21.575968 -0.001663 -0.000376 0.000007 0.000000 -0.000000 0.000000 
5.407505 76.188583 -4.824809 4.282002 -57.381116 4.037293 11.679393 12.710602 -5.425578 4.041850 4.210459 -2.712399 0.000000 0.000000 0.000000 4.093322 4.173075 -2.703602 -0.417994 1.150565 7.039633 -11.340497 30.556528 -4.537708 0.000000 -0.000001 0.000000 0.377113 -7.436386 -12.890568 0.000000 0.000000 0.000000 -30.060646 -41.102111 -29.619382 -2.081513 -72.317319 -1.635778 -1.913101 23.426594 42.068173 40.109903 -15.297201 -0.360475 5.639923 28.097788 11.338771 1.088569 40.896314 22.734018 -0.000003 0.000001 0.000001 6.882259 2.840038 -61.140493 8.248000 7.640045 -89.897878 2.146154 8.173412 -41.827798 0.000002 0.000000 -0.000001 -2.345541 4.688882 -62.655224 8.754168 9.897081 -87.051225 1.995361 4.929288 -37.483381 0.000001 -0.000002 0.000001 -9.042494 10.045631 -60.766178 8.523968 9.508868 -66.892947 6.576515 9.896779 -70.385113 -0.000002 -0.000001 0.000000 -17.946870 14.755005 -51.485911 8.868400 8.667045 -84.812071 4.540484 8.852638 -59.153004 0.000002 0.000000 -0.000001 2.559582 21.019400 -6.830148 0.000000 0.000000 0.000000 -1.561700 33.072059 0.691373 -178.933771 75.268739 179.032126 -68.145931 10.673602 -45.251745 0.277463 -1.521471 -1.570496 7.169021 -41.689624 -15.773543 -4.517985 11.064498 4.673957 -0.000000 0.000002 0.000002 6.412850 -12.738412 14.389545 9.941731 -7.465188 101.743270 4.405047 -9.947449 61.138874 0.000005 0.000000 -0.000000 2.653172 -11.302290 44.730957 9.916080 -9.880687 94.351161 8.462575 -8.530847 83.992236 -0.000000 0.000001 0.000001 2.140164 -7.454478 61.765039 9.609238 -8.992506 89.388673 11.175505 -10.370852 97.638148 0.000000 0.000000 -0.000001 -4.886707 -23.798131 68.396141 13.518301 -7.949290 112.864956 8.544497 -10.117903 85.305613 0.000001 0.000000 -0.000001 -44.234627 0.816940 27.554226 42.141236 -5.749518 0.275907 -0.692659 -4.739916 -20.583069 -1.836438 -0.000617 -0.000032 0.000000 -0.000005 -0.000000 -36.970687 -20.652528 -40.288783 46.543470 11.978228 -1.765038 -14.762136 -3.978772 20.786772 -0.001663 -0.000376 0.000007 0.000000 -0.000000 0.000000 
5.549019 76.441605 -4.809256 4.553913 -58.509033 4.161401 12.235562 12.466308 -5.944120 4.167030 4.169352 -2.813602 0.000000 0.000000 0.000000 4.213594 4.134000 -2.809062 -0.982846 1.275634 6.943000 -12.696568 31.538791 -4.386467 0.000000 0.000000 0.000000 0.469992 -7.672754 -11.958911 0.000000 0.000000 0.000000 -32.668347 -40.481111 -29.999328 -2.290995 -72.441929 -1.843463 -0.679267 23.671101 42.502952 40.109897 -15.297194 -0.360476 5.639925 28.097791 11.338775 1.088565 40.896314 22.734010 -0.000001 0.000004 -0.000001 6.882258 2.840038 -61.140493 8.248004 7.640047 -89.897878 2.146150 8.173412 -41.827798 -0.000001 -0.000002 0.000000 -2.345532 4.688883 -62.655231 8.754168 9.897079 -87.051232 1.995362 4.929289 -37.483378 0.000001 0.000000 -0.000001 -9.042493 10.045631 -60.766171 8.523966 9.508868 -66.892940 6.576523 9.896777 -70.385113 -0.000001 -0.000001 0.000002 -17.946862 14.755007 -51.485911 8.868398 8.667044 -84.812071 4.540478 8.852638 -59.152990 -0.000001 0.000002 -0.000002 1.947801 20.533135 -7.026577 0.000000 0.000000 0.000000 -2.633529 35.447500 2.378809 -179.601272 76.885425 179.927059 -68.793296 7.356062 -41.081177 0.277462 -1.521477 -1.570566 7.169084 -41.689678 -15.773523 -4.517985 11.064508 4.674000 -0.000000 -0.000001 0.000003 6.412772 -12.738416 14.389511 9.941772 -7.465195 101.743236 4.405037 -9.947420 61.138813 -0.000001 0.000000 -0.000001 2.653159 -11.302320 44.730912 9.916121 -9.880684 94.351175 8.462626 -8.530838 83.992230 0.000002 0.000001 -0.000001 2.140148 -7.454480 61.765018 9.609242 -8.992443 89.388721 11.175463 -10.370852 97.638121 0.000001 -0.000001 -0.000001 -4.886750 -23.798114 68.396094 13.518268 -7.949295 112.864935 8.544483 -10.117943 85.305661 0.000001 -0.000000 -0.000000 -43.821746 1.397152 28.133915 41.901165 -5.981216 0.249736 -0.813054 -4.044999 -20.579963 -1.836438 -0.000620 -0.000032 0.000000 0.000002 0.000000 -37.387861 -20.295863 -39.637148 46.116314 12.087656 -1.828296 -14.105916 -3.498932 20.509392 -0.001663 -0.000376 0.000007 0.000000 -0.000000 -0.000000 
5.682215 76.806717 -4.778003 4.845027 -59.916687 4.300643 12.531058 11.883325 -6.401985 4.169944 4.020449 -2.886276 0.000000 0.000000 0.000000 4.209963 3.986333 -2.886165 -1.613032 1.478103 6.800793 -13.107754 33.230574 -4.144161 -0.000000 0.000000 -0.000000 0.558114 -7.867302 -10.804187 0.000000 0.000000 0.000000 -34.479744 -38.722774 -29.267890 -2.652774 -73.369072 -2.192589 -0.146509 24.566913 42.877120 40.109903 -15.297202 -0.360475 5.639924 28.097788 11.338777 1.088565 40.896307 22.734018 0.000001 -0.000000 0.000001 6.882264 2.840035 -61.140493 8.248000 7.640045 -89.897878 2.146149 8.173414 -41.827798 0.000001 -0.000001 0.000000 -2.345533 4.688883 -62.655231 8.754168 9.897078 -87.051232 1.995362 4.929292 -37.483381 -0.000001 0.000001 -0.000004 -9.042493 10.045630 -60.766178 8.523969 9.508867 -66.892947 6.576520 9.896774 -70.385120 0.000001 0.000002 -0.000001 -17.946868 14.755003 -51.485911 8.868394 8.667040 -84.812071 4.540484 8.852641 -59.152997 -0.000003 -0.000000 -0.000000 1.513798 19.882633 -7.346665 0.000000 0.000000 0.000000 -3.277068 37.679217 0.125849 -178.544874 79.415053 179.244204 -65.939247 11.583606 -38.241949 0.277512 -1.521484 -1.570569 7.169065 -41.689641 -15.773559 -4.517991 11.064507 4.674006 0.000001 0.000003 0.000001 6.412871 -12.738417 14.389489 9.941726 -7.465188 101.743270 4.405020 -9.947419 61.138826 -0.000004 -0.000001 -0.000000 2.653191 -11.302311 44.730943 9.916077 -9.880668 94.351181 8.462596 -8.530864 83.992216 0.000001 -0.000001 -0.000002 2.140162 -7.454487 61.764998 9.609254 -8.992466 89.388680 11.175468 -10.370854 97.638148 0.000002 -0.000000 -0.000001 -4.886630 -23.798114 68.396155 13.518263 -7.949263 112.864935 8.544505 -10.117955 85.305654 0.000001 -0.000000 -0.000000 -43.216967 2.236953 28.838811 41.502050 -6.313128 0.219542 -0.959323 -3.178946 -20.555680 -1.836438 -0.000618 -0.000032 -0.000000 -0.000002 -0.000000 -37.726775 -19.857189 -38.753045 45.479969 12.194909 -1.909016 -13.296626 -2.957440 20.195032 -0.001663 -0.000376 0.000007 0.000000 -0.000000 0.000000 
